<svg id="visual" viewBox="0 0 960 540" width="960" height="540" xmlns="http://www.w3.org/2000/svg" xmlns:xlink="http://www.w3.org/1999/xlink" version="1.1"><rect x="0" y="0" width="960" height="540" fill="#FFCF00"></rect><path d="M0 316L160 360L320 338L480 388L640 336L800 385L960 394L960 541L800 541L640 541L480 541L320 541L160 541L0 541Z" fill="#ff9c00"></path><path d="M0 378L160 376L320 420L480 369L640 373L800 418L960 399L960 541L800 541L640 541L480 541L320 541L160 541L0 541Z" fill="#ffb000"></path><path d="M0 383L160 413L320 388L480 404L640 390L800 427L960 445L960 541L800 541L640 541L480 541L320 541L160 541L0 541Z" fill="#ffc300"></path><path d="M0 415L160 414L320 459L480 459L640 419L800 461L960 414L960 541L800 541L640 541L480 541L320 541L160 541L0 541Z" fill="#ffd700"></path><path d="M0 460L160 495L320 452L480 461L640 470L800 460L960 490L960 541L800 541L640 541L480 541L320 541L160 541L0 541Z" fill="#ffeb00"></path><path d="M0 494L160 487L320 511L480 504L640 482L800 489L960 510L960 541L800 541L640 541L480 541L320 541L160 541L0 541Z" fill="#fcff00"></path></svg>